<svg width="18" height="21" viewBox="0 0 18 21" fill="none" xmlns="http://www.w3.org/2000/svg">
<path d="M5.96822 18.0949C6.16344 18.7472 6.56388 19.3192 7.11007 19.7259C7.65625 20.1326 8.31904 20.3522 9 20.3522C9.68095 20.3522 10.3437 20.1326 10.8899 19.7259C11.4361 19.3192 11.8365 18.7472 12.0318 18.0949H5.96822ZM0.867065 17.1912H17.1329V14.4802L15.3256 11.7693V7.25097C15.3256 6.42027 15.162 5.59772 14.8441 4.83026C14.5262 4.0628 14.0603 3.36547 13.4729 2.77808C12.8855 2.1907 12.1882 1.72475 11.4207 1.40686C10.6532 1.08897 9.83069 0.925354 9 0.925354C8.1693 0.925354 7.34675 1.08897 6.57929 1.40686C5.81183 1.72475 5.1145 2.1907 4.52711 2.77808C3.93972 3.36547 3.47378 4.0628 3.15589 4.83026C2.838 5.59772 2.67438 6.42027 2.67438 7.25097V11.7693L0.867065 14.4802V17.1912Z" fill="#111111"/>
</svg>
