<svg width="20" height="21" viewBox="0 0 20 21" fill="none" xmlns="http://www.w3.org/2000/svg">
<path d="M19.743 10.9698L10.743 0.96979C10.364 0.54779 9.63599 0.54779 9.25699 0.96979L0.256994 10.9698C0.127674 11.1135 0.0427905 11.2916 0.0126187 11.4826C-0.017553 11.6736 0.00828102 11.8692 0.0869934 12.0458C0.246993 12.4068 0.604993 12.6388 0.999994 12.6388H2.99999V19.6388C2.99999 19.904 3.10535 20.1584 3.29289 20.3459C3.48042 20.5334 3.73478 20.6388 3.99999 20.6388H6.99999C7.26521 20.6388 7.51956 20.5334 7.7071 20.3459C7.89464 20.1584 7.99999 19.904 7.99999 19.6388V15.6388H12V19.6388C12 19.904 12.1054 20.1584 12.2929 20.3459C12.4804 20.5334 12.7348 20.6388 13 20.6388H16C16.2652 20.6388 16.5196 20.5334 16.7071 20.3459C16.8946 20.1584 17 19.904 17 19.6388V12.6388H19C19.1937 12.6396 19.3834 12.5841 19.546 12.4789C19.7087 12.3738 19.8372 12.2236 19.916 12.0467C19.9947 11.8698 20.0203 11.6737 19.9896 11.4825C19.9589 11.2913 19.8732 11.1131 19.743 10.9698Z" fill="black"/>
</svg>
