
<svg width="512" height="512" viewBox="0 0 512 512" fill="none" xmlns="http://www.w3.org/2000/svg">
<rect width="512" height="512" fill="#FBC917"/>
<circle cx="243.919" cy="230.964" r="93.6337" fill="#F2F2F2"/>
<path fill-rule="evenodd" clip-rule="evenodd" d="M286.864 217.687C280.478 224.095 275.619 235.177 275.619 241.105C275.619 258.196 254.334 275.749 227.149 300.24C168.195 349.594 174.912 352.009 195.507 343.446C198.439 342.227 204.883 338.748 206.382 338.748C207.881 338.748 160.103 367.905 165.093 370.063C170.091 369.978 228.767 344.936 237.613 338.729C254.826 326.655 265.055 325.162 268.152 331.525C269.767 334.843 267.568 336.52 267.202 341.159C266.627 348.449 268.715 350.068 275.079 350.068C280.407 348.92 285.397 340.62 288.209 336.47C291.669 331.361 299.546 323.724 309.092 315.216C323.222 304.015 326.84 293.677 323.222 266.107C324.834 242.962 328.757 238.648 343.382 231.645C362.164 224.408 369.59 221.114 350.792 217.687C346.228 216.855 329.961 215.088 323.222 214.241C317.199 213.485 316.816 208.727 306.335 208.727C295.449 210.58 292.197 212.337 286.864 217.687Z" fill="#111111"/>
<path fill-rule="evenodd" clip-rule="evenodd" d="M284.32 375.939L267.423 353.07C266.391 351.674 266.378 349.771 267.39 348.361L282.518 327.285L289.017 331.95L275.588 350.659L290.755 371.185L284.32 375.939Z" fill="#111111"/>
<path fill-rule="evenodd" clip-rule="evenodd" d="M273.729 374.67L273.073 372.258C271.741 372.619 270.954 373.993 271.316 375.325C271.677 376.652 273.04 377.438 274.367 377.087L274.371 377.086C274.383 377.083 274.41 377.077 274.454 377.067C274.542 377.047 274.698 377.015 274.928 376.973C275.39 376.89 276.151 376.773 277.274 376.652C279.521 376.412 283.207 376.163 288.833 376.163C294.458 376.163 298.379 376.411 300.869 376.655C302.114 376.776 303.001 376.896 303.564 376.983C303.845 377.027 304.045 377.062 304.168 377.085C304.23 377.096 304.272 377.105 304.296 377.11L304.316 377.114M304.314 377.113L304.318 377.114C305.665 377.404 306.993 376.55 307.287 375.203C307.582 373.854 306.727 372.522 305.378 372.228L304.845 374.67C305.378 372.228 305.377 372.227 305.377 372.227L305.372 372.226L305.365 372.225L305.345 372.221L305.284 372.208C305.235 372.198 305.167 372.185 305.08 372.169C304.907 372.137 304.657 372.093 304.328 372.042C303.668 371.94 302.689 371.809 301.355 371.678C298.689 371.418 294.604 371.163 288.833 371.163C283.064 371.163 279.197 371.418 276.741 371.681C275.513 371.812 274.634 371.946 274.044 372.052C273.749 372.105 273.526 372.151 273.367 372.187C273.287 372.204 273.224 372.219 273.175 372.231C273.151 372.237 273.13 372.243 273.113 372.247L273.091 372.253L273.081 372.255L273.077 372.257L273.075 372.257C273.075 372.257 273.073 372.258 273.729 374.67" fill="#111111"/>
</svg>
