<svg width="24" height="17" viewBox="0 0 24 17" fill="none" xmlns="http://www.w3.org/2000/svg">
<path d="M7.2 8.63879C9.52125 8.63879 11.4 6.77961 11.4 4.48254C11.4 2.18547 9.52125 0.326294 7.2 0.326294C4.87875 0.326294 3 2.18547 3 4.48254C3 6.77961 4.87875 8.63879 7.2 8.63879ZM10.08 9.82629H9.76875C8.98875 10.1974 8.1225 10.42 7.2 10.42C6.2775 10.42 5.415 10.1974 4.63125 9.82629H4.32C1.935 9.82629 0 11.7411 0 14.1013V15.17C0 16.1534 0.80625 16.9513 1.8 16.9513H12.6C13.5938 16.9513 14.4 16.1534 14.4 15.17V14.1013C14.4 11.7411 12.465 9.82629 10.08 9.82629ZM18 8.63879C19.9875 8.63879 21.6 7.04309 21.6 5.07629C21.6 3.1095 19.9875 1.51379 18 1.51379C16.0125 1.51379 14.4 3.1095 14.4 5.07629C14.4 7.04309 16.0125 8.63879 18 8.63879ZM19.8 9.82629H19.6575C19.1363 10.0044 18.585 10.1232 18 10.1232C17.415 10.1232 16.8638 10.0044 16.3425 9.82629H16.2C15.435 9.82629 14.73 10.0452 14.1112 10.3978C15.0262 11.3738 15.6 12.6689 15.6 14.1013V15.5263C15.6 15.6079 15.5813 15.6859 15.5775 15.7638H22.2C23.1938 15.7638 24 14.9659 24 13.9825C24 11.6855 22.1213 9.82629 19.8 9.82629Z" fill="black"/>
</svg>
