<svg width="18" height="19" viewBox="0 0 18 19" fill="none" xmlns="http://www.w3.org/2000/svg">
<path fill-rule="evenodd" clip-rule="evenodd" d="M5 4.63879C5 3.57793 5.42143 2.56051 6.17157 1.81037C6.92172 1.06022 7.93913 0.638794 9 0.638794C10.0609 0.638794 11.0783 1.06022 11.8284 1.81037C12.5786 2.56051 13 3.57793 13 4.63879C13 5.69966 12.5786 6.71708 11.8284 7.46722C11.0783 8.21737 10.0609 8.63879 9 8.63879C7.93913 8.63879 6.92172 8.21737 6.17157 7.46722C5.42143 6.71708 5 5.69966 5 4.63879ZM5 10.6388C3.67392 10.6388 2.40215 11.1656 1.46447 12.1033C0.526784 13.0409 0 14.3127 0 15.6388C0 16.4344 0.316071 17.1975 0.87868 17.7601C1.44129 18.3227 2.20435 18.6388 3 18.6388H15C15.7956 18.6388 16.5587 18.3227 17.1213 17.7601C17.6839 17.1975 18 16.4344 18 15.6388C18 14.3127 17.4732 13.0409 16.5355 12.1033C15.5979 11.1656 14.3261 10.6388 13 10.6388H5Z" fill="black"/>
</svg>
