<svg width="14" height="15" viewBox="0 0 14 15" fill="none" xmlns="http://www.w3.org/2000/svg">
<path d="M4.26338 0.906933C4.3437 0.846697 4.43509 0.80287 4.53234 0.777954C4.62959 0.753038 4.7308 0.747522 4.83019 0.761719C4.92957 0.775917 5.02519 0.809551 5.11157 0.860701C5.19796 0.911851 5.27342 0.979516 5.33366 1.05983C5.3939 1.14015 5.43772 1.23154 5.46264 1.32879C5.48756 1.42604 5.49307 1.52725 5.47887 1.62664C5.46468 1.72602 5.43104 1.82164 5.37989 1.90802C5.32874 1.99441 5.26108 2.06987 5.18076 2.13011C3.98511 3.02685 3.30013 3.89913 2.90795 4.66056C3.44643 4.52194 4.01472 4.55453 4.53382 4.75379C5.05293 4.95305 5.49707 5.30908 5.8045 5.7724C6.11193 6.23571 6.26738 6.7833 6.24925 7.33904C6.23112 7.89478 6.0403 8.43106 5.70332 8.87335C5.36634 9.31565 4.89994 9.64197 4.36895 9.80697C3.83796 9.97196 3.26876 9.96744 2.74046 9.79402C2.21216 9.6206 1.75101 9.2869 1.4211 8.83931C1.0912 8.39172 0.908937 7.85246 0.899644 7.2965C0.802772 6.35768 0.936068 5.40939 1.288 4.53365C1.7444 3.38234 2.63655 2.12705 4.26338 0.906933ZM11.1438 0.906933C11.2241 0.846697 11.3155 0.80287 11.4127 0.777954C11.51 0.753038 11.6112 0.747522 11.7106 0.761719C11.8099 0.775917 11.9056 0.809551 11.9919 0.860701C12.0783 0.911851 12.1538 0.979516 12.214 1.05983C12.2743 1.14015 12.3181 1.23154 12.343 1.32879C12.3679 1.42604 12.3734 1.52725 12.3592 1.62664C12.345 1.72602 12.3114 1.82164 12.2603 1.90802C12.2091 1.99441 12.1415 2.06987 12.0611 2.13011C10.8655 3.02685 10.1805 3.89913 9.78832 4.66056C10.3268 4.52194 10.8951 4.55453 11.4142 4.75379C11.9333 4.95305 12.3774 5.30908 12.6849 5.7724C12.9923 6.23571 13.1478 6.7833 13.1296 7.33904C13.1115 7.89478 12.9207 8.43106 12.5837 8.87335C12.2467 9.31565 11.7803 9.64197 11.2493 9.80697C10.7183 9.97196 10.1491 9.96744 9.62083 9.79402C9.09253 9.6206 8.63138 9.2869 8.30148 8.83931C7.97157 8.39172 7.78931 7.85246 7.78002 7.2965C7.68314 6.35768 7.81644 5.40939 8.16837 4.53365C8.62554 3.38234 9.51693 2.12705 11.1438 0.906933Z" fill="#757678"/>
</svg>
