<svg width="20" height="20" viewBox="0 0 20 20" fill="none" xmlns="http://www.w3.org/2000/svg">
<path d="M1.998 9.98763C1.998 10.4097 2.04387 10.8256 2.13562 11.2354C2.22736 11.6452 2.36193 12.0428 2.5393 12.4281C2.71668 12.8134 2.93076 13.1743 3.18153 13.5107C3.4323 13.8471 3.56262 13.9511 3.89291 14.2263L3.05802 15.0612C2.6788 14.7248 2.5026 14.5597 2.20901 14.1621C1.91543 13.7645 1.66465 13.3394 1.45669 12.8868C1.24873 12.4342 1.09276 11.9663 0.988783 11.4831C0.884803 10.9999 0.829755 10.5014 0.823639 9.98763C0.823639 9.33928 0.906211 8.71541 1.07136 8.11599C1.2365 7.51658 1.47504 6.95693 1.78698 6.43703C2.09892 5.91713 2.46591 5.44005 2.88794 5.00578C3.30998 4.57151 3.784 4.20452 4.31002 3.90482C4.83603 3.60511 5.39874 3.36963 5.99816 3.19837C6.59757 3.02711 7.22145 2.94148 7.86979 2.94148H13.7966L12.3012 1.44601L13.1269 0.620285L16.0353 3.52866L13.1269 6.43703L12.3012 5.61131L13.7966 4.11584H7.86979C7.33154 4.11584 6.81164 4.18618 6.31009 4.32685C5.80855 4.46753 5.34064 4.66326 4.90637 4.91403C4.4721 5.16481 4.07759 5.47063 3.72284 5.8315C3.36808 6.19237 3.06226 6.58994 2.80537 7.02421C2.54848 7.45848 2.34969 7.92638 2.20901 8.42793C2.06834 8.92948 1.998 9.44938 1.998 9.98763ZM17.4011 4.89568C17.7803 5.22596 17.9344 5.41558 18.228 5.81315C18.5216 6.21072 18.7724 6.63581 18.9803 7.08843C19.1883 7.54105 19.3443 8.01202 19.4482 8.50133C19.5522 8.99065 19.6073 9.48608 19.6134 9.98763C19.6134 10.636 19.5308 11.2599 19.3657 11.8593C19.2005 12.4587 18.962 13.0183 18.65 13.5382C18.3381 14.0581 17.9711 14.5352 17.5491 14.9695C17.127 15.4037 16.653 15.7707 16.127 16.0704C15.601 16.3701 15.0383 16.6056 14.4389 16.7769C13.8394 16.9481 13.2156 17.0338 12.5672 17.0338H6.64038L8.13586 18.5293L7.31013 19.355L4.40176 16.4466L7.31013 13.5382L8.13586 14.3639L6.64038 15.8594H12.5672C13.1055 15.8594 13.6254 15.7891 14.1269 15.6484C14.6285 15.5077 15.0964 15.312 15.5306 15.0612C15.9649 14.8104 16.3594 14.5046 16.7142 14.1438C17.0689 13.7829 17.3748 13.3853 17.6316 12.951C17.8885 12.5168 18.0873 12.0489 18.228 11.5473C18.3687 11.0458 18.439 10.5259 18.439 9.98763C18.439 9.55948 18.3931 9.1405 18.3014 8.7307C18.2096 8.3209 18.0781 7.92333 17.9069 7.53799C17.7356 7.15265 17.5215 6.79484 17.2647 6.46455C17.0078 6.13426 16.8996 5.9997 16.5754 5.71222L17.4011 4.89568Z" fill="#757678" stroke="#757678" stroke-width="0.5" stroke-linejoin="round"/>
</svg>
