<svg width="22" height="14" viewBox="0 0 22 14" fill="none" xmlns="http://www.w3.org/2000/svg">
<path d="M11.022 0.263794C-3.5008 0.263794 -0.710755 13.0138 5.82254 13.0138C7.13176 13.0138 8.36453 12.3268 9.15038 11.1591L9.99465 9.90432C10.5085 9.14098 11.5359 9.14098 12.0497 9.90432L12.894 11.1591C13.6795 12.3268 14.9123 13.0138 16.2215 13.0138C22.4513 13.0138 25.7578 0.263794 11.022 0.263794ZM6.53753 8.37731C5.19024 8.37731 4.31415 7.52532 3.9099 7.01432C3.73829 6.7975 3.73829 6.48008 3.9099 6.26293C4.31415 5.75161 5.18992 4.89995 6.53753 4.89995C7.88514 4.89995 8.7609 5.75194 9.16515 6.26293C9.33676 6.47975 9.33676 6.79717 9.16515 7.01432C8.7609 7.52565 7.88481 8.37731 6.53753 8.37731ZM15.4625 8.37731C14.1152 8.37731 13.2392 7.52532 12.8349 7.01432C12.6633 6.7975 12.6633 6.48008 12.8349 6.26293C13.2392 5.75161 14.1149 4.89995 15.4625 4.89995C16.8101 4.89995 17.6859 5.75194 18.0902 6.26293C18.2618 6.47975 18.2618 6.79717 18.0902 7.01432C17.6859 7.52565 16.8098 8.37731 15.4625 8.37731Z" fill="black"/>
</svg>
