<svg width="20" height="21" viewBox="0 0 20 21" fill="none" xmlns="http://www.w3.org/2000/svg">
<path d="M10.012 0.888794C10.746 0.896794 11.477 0.981794 12.194 1.14179C12.3465 1.17584 12.4846 1.2567 12.5889 1.37305C12.6933 1.48941 12.7587 1.63546 12.776 1.79079L12.946 3.31779C12.97 3.53308 13.0442 3.73972 13.1626 3.9211C13.281 4.10248 13.4404 4.25352 13.6278 4.36208C13.8153 4.47064 14.0256 4.53369 14.2419 4.54614C14.4581 4.5586 14.6743 4.52012 14.873 4.43379L16.273 3.81879C16.4152 3.75614 16.5734 3.73924 16.7257 3.77041C16.878 3.80158 17.0168 3.87929 17.123 3.99279C18.135 5.07395 18.8889 6.37042 19.328 7.78479C19.3738 7.93353 19.3723 8.09286 19.3236 8.24068C19.2748 8.38851 19.1813 8.51751 19.056 8.60979L17.815 9.52579C17.6401 9.65396 17.4979 9.82152 17.3999 10.0149C17.3019 10.2083 17.2508 10.422 17.2508 10.6388C17.2508 10.8556 17.3019 11.0693 17.3999 11.2627C17.4979 11.4561 17.6401 11.6236 17.815 11.7518L19.058 12.6668C19.1835 12.7591 19.2772 12.8883 19.3259 13.0363C19.3747 13.1844 19.3761 13.3439 19.33 13.4928C18.8912 14.9071 18.1377 16.2035 17.126 17.2848C17.02 17.3983 16.8814 17.476 16.7293 17.5074C16.5772 17.5387 16.4192 17.5221 16.277 17.4598L14.871 16.8428C14.6726 16.7558 14.4565 16.7167 14.2402 16.7288C14.0238 16.7408 13.8134 16.8036 13.6259 16.9121C13.4383 17.0205 13.279 17.1716 13.1607 17.3531C13.0424 17.5346 12.9685 17.7414 12.945 17.9568L12.775 19.4828C12.758 19.6363 12.694 19.7808 12.5918 19.8966C12.4896 20.0124 12.3542 20.0939 12.204 20.1298C10.7556 20.4751 9.24634 20.4751 7.79797 20.1298C7.64757 20.094 7.5119 20.0127 7.4095 19.8969C7.30711 19.7811 7.24301 19.6364 7.22597 19.4828L7.05697 17.9588C7.03242 17.7441 6.95787 17.5382 6.83931 17.3575C6.72074 17.1768 6.56146 17.0265 6.37426 16.9186C6.18707 16.8106 5.97716 16.7481 5.76141 16.736C5.54566 16.7238 5.33008 16.7625 5.13197 16.8488L3.72597 17.4648C3.58363 17.5273 3.42537 17.5441 3.27309 17.5127C3.12081 17.4814 2.98204 17.4035 2.87597 17.2898C1.8641 16.2073 1.11088 14.9094 0.672971 13.4938C0.626868 13.3449 0.628288 13.1854 0.677034 13.0373C0.72578 12.8893 0.819431 12.7601 0.944971 12.6678L2.18797 11.7518C2.36282 11.6236 2.50501 11.4561 2.60302 11.2627C2.70103 11.0693 2.75211 10.8556 2.75211 10.6388C2.75211 10.422 2.70103 10.2083 2.60302 10.0149C2.50501 9.82152 2.36282 9.65396 2.18797 9.52579L0.944971 8.61179C0.819431 8.51944 0.72578 8.39027 0.677034 8.24224C0.628288 8.09421 0.626868 7.93467 0.672971 7.78579C1.11201 6.37142 1.8659 5.07495 2.87797 3.99379C2.98416 3.88029 3.12298 3.80258 3.27526 3.77141C3.42753 3.74024 3.58573 3.75714 3.72797 3.81979L5.12797 4.43479C5.32699 4.52107 5.54347 4.55946 5.76002 4.54688C5.97657 4.53431 6.18715 4.47112 6.37484 4.36239C6.56254 4.25366 6.72212 4.10243 6.84076 3.92084C6.9594 3.73924 7.0338 3.53236 7.05797 3.31679L7.22797 1.79079C7.24513 1.63515 7.31058 1.48878 7.41513 1.37221C7.51968 1.25564 7.6581 1.17472 7.81097 1.14079C8.52697 0.982127 9.26064 0.898127 10.012 0.888794ZM9.99997 7.63879C9.20432 7.63879 8.44126 7.95486 7.87865 8.51747C7.31604 9.08008 6.99997 9.84314 6.99997 10.6388C6.99997 11.4344 7.31604 12.1975 7.87865 12.7601C8.44126 13.3227 9.20432 13.6388 9.99997 13.6388C10.7956 13.6388 11.5587 13.3227 12.1213 12.7601C12.6839 12.1975 13 11.4344 13 10.6388C13 9.84314 12.6839 9.08008 12.1213 8.51747C11.5587 7.95486 10.7956 7.63879 9.99997 7.63879Z" fill="black"/>
</svg>
